<?xml version="1.0" standalone="no"?>
<!DOCTYPE svg PUBLIC "-//W3C//DTD SVG 20010904//EN"
 "http://www.w3.org/TR/2001/REC-SVG-20010904/DTD/svg10.dtd">
<svg version="1.0" xmlns="http://www.w3.org/2000/svg"
 width="512.000000pt" height="512.000000pt" viewBox="0 0 512.000000 512.000000"
 preserveAspectRatio="xMidYMid meet">

<g transform="translate(0.000000,512.000000) scale(0.100000,-0.100000)"
fill="#000000" stroke="none">
<path d="M412 4068 c-17 -17 -17 -279 0 -296 7 -7 25 -12 40 -12 24 0 28 -4
28 -28 0 -15 5 -33 12 -40 9 -9 -17 -12 -118 -12 -119 0 -134 -2 -181 -25 -33
-17 -61 -41 -79 -68 l-29 -42 -3 -959 c-2 -707 1 -962 9 -972 9 -12 4 -14 -28
-14 -21 0 -44 -5 -51 -12 -16 -16 -16 -200 0 -216 7 -7 40 -12 80 -12 l67 0 3
-71 c2 -55 7 -74 20 -83 13 -8 23 -8 35 0 14 9 19 28 21 83 l3 71 348 0 c305
0 350 2 362 16 11 13 14 8 26 -35 39 -155 158 -263 323 -293 115 -22 252 23
339 110 55 55 85 108 104 183 12 43 15 48 26 35 12 -14 118 -16 1029 -16 899
0 1017 2 1032 15 16 14 18 12 24 -25 30 -188 252 -338 446 -302 165 30 284
138 323 293 12 43 15 48 26 35 12 -14 45 -16 230 -16 155 0 220 3 229 12 16
16 16 200 0 216 -7 7 -30 12 -52 12 -31 0 -37 3 -28 12 37 37 -18 359 -84 490
-35 69 -62 96 -276 276 l-194 164 -28 116 c-130 538 -318 925 -489 1002 -39
18 -71 20 -491 20 -396 0 -447 2 -436 15 18 22 4 112 -29 181 -36 74 -98 135
-176 171 -60 28 -60 28 -308 31 -182 3 -252 0 -263 -8 -19 -16 -21 -359 -2
-378 9 -9 -136 -12 -652 -12 -516 0 -661 3 -652 12 7 7 12 25 12 40 0 24 4 28
28 28 15 0 33 5 40 12 17 17 17 279 0 296 -17 17 -599 17 -616 0z m548 -148
l0 -80 -240 0 -240 0 0 80 0 80 240 0 240 0 0 -80z m1452 68 c-8 -8 -12 -56
-12 -148 0 -92 4 -140 12 -148 9 -9 -2 -12 -52 -12 -50 0 -61 3 -52 12 8 8 12
58 12 160 l0 148 52 0 c40 0 49 -3 40 -12z m340 2 c98 -28 191 -131 203 -229
3 -25 10 -54 16 -63 8 -17 1 -18 -91 -18 -96 0 -100 1 -88 19 17 28 -9 90 -52
119 -28 19 -45 22 -99 20 -48 -2 -67 -7 -75 -20 -20 -33 4 -52 74 -58 42 -3
65 -10 70 -20 4 -8 12 -25 19 -37 l11 -23 -142 0 c-110 0 -139 3 -130 12 8 8
12 56 12 148 0 92 -4 140 -12 148 -15 15 229 17 284 2z m-1872 -258 c0 -15 5
-33 12 -40 9 -9 -29 -12 -172 -12 -143 0 -181 3 -172 12 7 7 12 25 12 40 l0
28 160 0 160 0 0 -28z m2092 -144 c-9 -9 -12 -259 -12 -1064 0 -944 2 -1054
16 -1068 14 -15 -40 -16 -590 -16 -463 0 -607 -3 -612 -12 -5 -7 -13 19 -20
59 -31 188 -151 311 -334 345 -161 30 -348 -67 -417 -218 -14 -30 -31 -88 -37
-127 -7 -40 -15 -66 -20 -59 -5 9 -111 12 -437 12 l-429 0 0 40 0 39 111 3
c94 3 114 6 123 21 8 12 8 22 0 35 -9 13 -30 18 -95 22 -48 3 -79 8 -72 13 10
6 13 207 13 945 0 1048 -4 987 70 1024 33 17 120 18 1394 18 1058 0 1357 -3
1348 -12z m979 -17 c25 -15 61 -50 81 -77 36 -49 118 -192 118 -206 0 -5 -10
-8 -23 -8 -13 0 -28 -5 -35 -12 -17 -17 -17 -759 0 -776 8 -8 61 -12 172 -12
l160 0 50 -42 c363 -302 390 -330 436 -463 l19 -55 -53 0 c-28 0 -57 -5 -64
-12 -16 -16 -16 -200 0 -216 7 -7 40 -12 80 -12 l68 0 0 -29 c0 -17 6 -33 13
-38 7 -5 -5 -10 -32 -13 -50 -6 -73 -29 -55 -57 9 -14 28 -19 83 -21 l71 -3 0
-39 0 -40 -189 0 c-138 0 -192 -3 -197 -12 -5 -7 -13 19 -20 59 -31 188 -151
311 -334 345 -158 30 -339 -63 -414 -210 -14 -29 -32 -86 -39 -129 -7 -43 -17
-72 -21 -65 -5 9 -106 12 -412 12 -369 0 -404 1 -390 16 14 14 16 124 16 1068
0 805 -3 1055 -12 1064 -9 9 87 12 433 12 l445 0 45 -29z m270 -451 c36 -90
123 -375 148 -482 l18 -78 -113 0 -114 0 0 321 c0 287 2 320 16 317 9 -2 28
-35 45 -78z m723 -1302 c13 -49 8 -58 -29 -58 -34 0 -35 1 -35 40 0 37 2 40
29 40 21 0 30 -6 35 -22z m-3452 -90 c199 -92 248 -358 93 -513 -122 -121
-328 -121 -450 0 -78 78 -111 204 -82 306 57 194 259 289 439 207z m2880 0
c70 -32 124 -86 157 -157 54 -115 27 -264 -64 -356 -122 -121 -328 -121 -450
0 -78 78 -111 204 -82 306 57 194 259 289 439 207z"/>
<path d="M412 3347 l-92 -92 0 -100 c0 -117 17 -156 78 -182 33 -14 41 -14 80
0 39 13 47 13 83 -1 35 -14 43 -14 79 1 36 14 44 14 80 0 36 -15 44 -15 80 0
36 14 44 14 80 0 36 -15 44 -15 80 0 36 14 44 14 80 0 36 -15 44 -15 80 0 36
14 44 14 80 0 36 -15 44 -15 80 0 36 14 44 14 80 0 36 -15 44 -15 80 0 36 14
44 14 80 0 36 -15 44 -15 80 0 36 14 44 14 80 0 36 -15 44 -15 80 0 36 14 44
14 80 0 37 -15 44 -15 82 0 24 10 46 13 52 8 24 -19 74 -22 111 -6 23 9 42 12
49 6 24 -19 74 -22 111 -6 23 9 42 12 49 6 24 -19 74 -22 111 -6 23 9 42 12
49 6 24 -19 74 -22 111 -6 23 9 42 12 49 6 23 -19 74 -22 110 -7 59 25 76 64
76 181 l0 100 -93 93 -92 92 -1055 0 -1055 0 -93 -93z m2213 -27 l39 -40
-1104 0 -1104 0 39 40 39 40 1026 0 1026 0 39 -40z m93 -191 c-2 -55 -7 -74
-20 -83 -23 -14 -50 2 -58 34 -12 51 -68 51 -80 0 -12 -51 -68 -51 -80 0 -12
51 -68 51 -80 0 -12 -51 -68 -51 -80 0 -12 51 -68 51 -80 0 -12 -51 -68 -51
-80 0 -12 51 -68 51 -80 0 -12 -51 -68 -51 -80 0 -12 51 -68 51 -80 0 -12 -51
-68 -51 -80 0 -12 51 -68 51 -80 0 -8 -32 -35 -48 -57 -34 -10 6 -20 21 -23
34 -8 32 -35 48 -57 34 -10 -6 -20 -21 -23 -34 -8 -32 -35 -48 -57 -34 -10 6
-20 21 -23 34 -12 51 -68 51 -80 0 -12 -51 -68 -51 -80 0 -12 51 -68 51 -80 0
-12 -51 -68 -51 -80 0 -12 51 -68 51 -80 0 -12 -51 -68 -51 -80 0 -8 32 -35
48 -57 34 -10 -6 -20 -21 -23 -34 -12 -51 -68 -51 -80 0 -3 13 -13 28 -23 34
-22 14 -49 -2 -57 -34 -12 -51 -68 -51 -80 0 -8 32 -35 48 -57 34 -10 -6 -20
-21 -23 -34 -8 -32 -35 -48 -57 -34 -10 6 -20 21 -23 34 -8 32 -35 48 -57 34
-10 -6 -20 -21 -23 -34 -8 -32 -35 -48 -57 -34 -14 9 -19 28 -21 83 l-3 71
1161 0 1161 0 -3 -71z"/>
<path d="M492 2948 c-18 -18 -17 -923 1 -935 7 -5 -5 -10 -32 -13 -50 -6 -73
-29 -55 -57 11 -17 76 -18 1154 -18 1078 0 1143 1 1154 18 18 28 -4 52 -53 55
-34 3 -40 6 -32 16 8 9 10 154 9 471 -3 423 -4 459 -20 469 -13 8 -23 8 -35 0
-17 -10 -18 -46 -21 -469 -1 -330 1 -462 9 -471 9 -12 1 -14 -52 -14 -49 0
-60 3 -51 12 17 17 17 359 0 376 -7 7 -24 12 -39 12 -24 0 -28 5 -31 31 -6 64
-70 64 -76 0 -3 -26 -7 -31 -31 -31 -15 0 -32 -5 -39 -12 -17 -17 -17 -359 0
-376 9 -9 -2 -12 -52 -12 -50 0 -61 3 -52 12 17 17 17 359 0 376 -7 7 -24 12
-39 12 -24 0 -28 5 -31 31 -6 64 -70 64 -76 0 -3 -26 -7 -31 -31 -31 -15 0
-32 -5 -39 -12 -17 -17 -17 -359 0 -376 9 -9 -104 -12 -511 -12 -420 0 -521 2
-513 13 6 7 18 78 28 158 16 129 20 147 38 155 25 11 32 39 16 59 -9 10 -33
15 -77 15 -57 0 -64 2 -59 18 24 79 28 113 16 127 -27 33 -62 14 -74 -40 -4
-16 -12 -47 -17 -67 l-10 -38 -73 0 c-52 0 -77 -4 -86 -15 -16 -20 -9 -48 16
-59 18 -8 22 -26 38 -155 10 -80 22 -151 28 -158 8 -10 -7 -13 -73 -13 -65 0
-80 3 -71 12 9 9 12 127 12 468 0 471 -1 480 -40 480 -9 0 -21 -5 -28 -12z
m378 -650 c0 -12 -7 -78 -16 -145 -12 -97 -13 -127 -4 -138 11 -13 4 -15 -50
-15 -54 0 -61 2 -50 15 9 11 8 41 -4 138 -24 182 -28 167 54 167 66 0 70 -1
70 -22z m1210 -18 l0 -40 -40 0 -40 0 0 40 0 40 40 0 40 0 0 -40z m320 -12 c0
-40 -3 -49 -12 -40 -17 17 -45 15 -57 -5 -8 -14 -10 -4 -11 40 l0 57 40 0 40
0 0 -52z m-42 -108 c10 0 23 5 30 12 9 9 12 -6 12 -68 0 -49 5 -85 12 -92 9
-9 -2 -12 -52 -12 -50 0 -61 3 -52 12 7 7 12 45 12 98 1 62 3 80 11 68 5 -10
18 -18 27 -18z m-278 -68 c0 -40 5 -73 12 -80 9 -9 -2 -12 -52 -12 -50 0 -61
3 -52 12 7 7 12 40 12 80 l0 68 40 0 40 0 0 -68z"/>
<path d="M3205 3273 c-11 -3 -28 -12 -39 -22 -42 -37 -46 -66 -46 -371 0 -309
3 -334 50 -375 21 -19 38 -20 334 -23 446 -4 416 -33 416 398 0 428 28 400
-400 399 -162 -1 -304 -4 -315 -6z m315 -393 l0 -320 -148 0 c-102 0 -152 4
-160 12 -17 17 -17 599 0 616 8 8 58 12 160 12 l148 0 0 -320z m308 308 c17
-17 17 -599 0 -616 -8 -8 -49 -12 -120 -12 l-108 0 0 320 0 320 108 0 c71 0
112 -4 120 -12z"/>
<path d="M3931 2386 c-8 -9 -11 -89 -9 -271 3 -233 5 -259 21 -269 12 -8 22
-8 35 0 15 10 17 36 20 269 2 266 0 285 -38 285 -10 0 -23 -6 -29 -14z"/>
<path d="M3771 2376 c-8 -9 -11 -47 -9 -106 2 -76 6 -95 21 -104 12 -8 22 -8
35 0 14 9 18 28 20 104 3 96 -5 120 -38 120 -10 0 -23 -6 -29 -14z"/>
<path d="M1265 1656 c-191 -90 -191 -342 0 -432 29 -14 68 -24 95 -24 54 0
134 36 172 76 68 73 85 173 44 259 -59 125 -193 177 -311 121z m65 -76 c-25
-46 36 -82 64 -38 8 13 7 23 -3 39 -11 19 -11 21 4 15 9 -3 20 -6 24 -6 5 0
20 -10 35 -21 l27 -21 -23 -12 c-27 -13 -35 -41 -18 -61 16 -19 35 -19 53 0
19 19 27 9 27 -35 0 -44 -8 -54 -27 -35 -18 19 -37 19 -53 0 -17 -20 -9 -48
18 -61 l23 -12 -28 -19 c-15 -11 -38 -24 -51 -28 -22 -6 -22 -5 -10 14 9 16
10 26 2 39 -28 44 -89 8 -63 -39 10 -19 9 -20 -13 -14 -21 7 -88 51 -88 59 0
2 11 1 24 -1 32 -6 52 27 36 58 -15 27 -51 21 -66 -10 -12 -24 -13 -24 -19 12
-4 21 -4 53 0 74 6 36 7 36 19 12 15 -31 51 -37 66 -10 16 31 -4 64 -36 58
-24 -4 -24 -4 -7 16 16 18 67 46 86 47 4 0 3 -9 -3 -20z"/>
<path d="M1330 1461 c-25 -47 36 -83 64 -38 8 12 8 22 0 35 -16 25 -51 27 -64
3z"/>
<path d="M4145 1656 c-60 -28 -97 -66 -124 -126 -37 -82 -18 -184 47 -254 38
-40 118 -76 172 -76 54 0 134 36 172 76 68 73 85 173 44 259 -59 125 -193 177
-311 121z m65 -76 c-25 -46 36 -82 64 -38 8 13 7 23 -3 39 -11 19 -11 21 4 15
9 -3 20 -6 24 -6 5 0 20 -10 35 -21 l27 -21 -23 -12 c-27 -13 -35 -41 -18 -61
16 -19 35 -19 53 0 19 19 27 9 27 -35 0 -44 -8 -54 -27 -35 -18 19 -37 19 -53
0 -17 -20 -9 -48 18 -61 l23 -12 -28 -19 c-15 -11 -38 -24 -51 -28 -22 -6 -22
-5 -10 14 9 16 10 26 2 39 -28 44 -89 8 -63 -39 10 -19 9 -20 -13 -14 -21 7
-88 51 -88 59 0 2 11 1 24 -1 32 -6 52 27 36 58 -15 27 -51 21 -66 -10 -12
-24 -13 -24 -19 12 -4 21 -4 53 0 74 6 36 7 36 19 12 15 -31 51 -37 66 -10 16
31 -4 64 -36 58 -24 -4 -24 -4 -7 16 16 18 67 46 86 47 4 0 3 -9 -3 -20z"/>
<path d="M4210 1461 c-25 -47 36 -83 64 -38 8 12 8 22 0 35 -16 25 -51 27 -64
3z"/>
<path d="M1612 3988 c-16 -16 -15 -43 2 -57 9 -8 89 -11 271 -9 233 3 259 5
269 21 8 12 8 22 0 35 -10 15 -36 17 -270 20 -194 2 -263 -1 -272 -10z"/>
<path d="M1932 3828 c-6 -6 -12 -20 -12 -29 0 -32 25 -40 125 -37 80 2 100 6
109 21 8 12 8 22 0 35 -9 14 -29 18 -110 20 -69 2 -103 -1 -112 -10z"/>
</g>
</svg>
